<?xml version="1.0" encoding="UTF-8"?>
<svg version="1.1" xmlns="http://www.w3.org/2000/svg" width="1024" height="1024">
<path d="M0 0 C337.92 0 675.84 0 1024 0 C1024 337.92 1024 675.84 1024 1024 C686.08 1024 348.16 1024 0 1024 C0 686.08 0 348.16 0 0 Z " fill="#0A1612" transform="translate(0,0)"/>
<path d="M0 0 C3.00023948 1.34676917 5.08720005 2.83911901 7.40423584 5.16372681 C8.05762436 5.814366 8.71101288 6.46500519 9.38420105 7.13536072 C10.08982681 7.84817703 10.79545258 8.56099335 11.52246094 9.29541016 C12.6498745 10.42238564 12.6498745 10.42238564 13.80006409 11.5721283 C16.28293771 14.05639513 18.7586523 16.54767095 21.234375 19.0390625 C22.95458084 20.76299849 24.6752288 22.48649341 26.39630127 24.20956421 C30.92494332 28.74584251 35.44754715 33.28809494 39.96893311 37.831604 C44.58374014 42.46686953 49.20421396 47.09647863 53.82421875 51.7265625 C62.88837732 60.81217086 71.9463628 69.90390788 81 79 C79.65469337 81.99384241 78.1645454 84.08632366 75.84973145 86.40423584 C75.20198257 87.05762436 74.5542337 87.71101288 73.88685608 88.38420105 C73.17718185 89.08982681 72.46750763 89.79545258 71.73632812 90.52246094 C70.98822372 91.27406998 70.24011932 92.02567902 69.46934509 92.80006409 C66.99498901 95.28322373 64.51338768 97.7589955 62.03125 100.234375 C60.31224754 101.95472422 58.5935421 103.67537027 56.87512207 105.39630127 C53.27367198 109.00070052 49.66862707 112.60145537 46.06103516 116.19970703 C41.42687304 120.82245772 36.80176878 125.45415051 32.1792984 130.08858871 C28.63313913 133.6419575 25.08225176 137.1905705 21.52989197 140.73773956 C19.82190421 142.44438919 18.11541178 144.15253663 16.41041565 145.86217499 C14.03295989 148.24468285 11.64923436 150.62073033 9.26367188 152.99511719 C8.55399765 153.70883987 7.84432343 154.42256256 7.11314392 155.15791321 C6.14152061 156.12107704 6.14152061 156.12107704 5.15026855 157.10369873 C4.5868853 157.66632793 4.02350204 158.22895714 3.44304657 158.80863571 C2 160 2 160 0 160 C-1.469491 158.51106262 -1.469491 158.51106262 -3.16798401 156.46411133 C-6.70780807 152.30432646 -10.44072469 148.42395808 -14.31225586 144.57421875 C-15.00578156 143.88054703 -15.69930725 143.18687531 -16.41384888 142.47218323 C-18.67848174 140.20824012 -20.94662249 137.94784741 -23.21484375 135.6875 C-24.79689566 134.1073156 -26.37872512 132.52690847 -27.96034241 130.94628906 C-32.10253278 126.80789763 -36.24771857 122.67251946 -40.39355469 118.53778076 C-44.63203643 114.30956981 -48.86765171 110.07848948 -53.10351562 105.84765625 C-61.39955512 97.56230775 -69.69876482 89.28014262 -78 81 C-76.66785397 78.04210731 -75.215058 75.96815767 -72.91893005 73.68515015 C-72.28656433 73.05148026 -71.65419861 72.41781036 -71.00267029 71.76493835 C-70.3101265 71.08115616 -69.6175827 70.39737396 -68.90405273 69.69287109 C-68.17384918 68.96398178 -67.44364563 68.23509247 -66.6913147 67.4841156 C-64.27663624 65.07592843 -61.85506734 62.67479024 -59.43359375 60.2734375 C-57.7568225 58.60293572 -56.08056474 56.93191837 -54.40480042 55.26040649 C-49.99202427 50.86093801 -45.57371718 46.46706967 -41.15380859 42.07476807 C-34.07388412 35.03795566 -27.00066926 27.99441449 -19.93065071 20.94765091 C-17.45510409 18.48235873 -14.97618949 16.02048999 -12.49693298 13.55892944 C-10.98669234 12.05551398 -9.47655964 10.55199007 -7.96655273 9.04833984 C-7.27198471 8.36050919 -6.57741669 7.67267853 -5.86180115 6.96400452 C-5.23225525 6.33597427 -4.60270935 5.70794403 -3.9540863 5.06088257 C-3.12975176 4.24182717 -3.12975176 4.24182717 -2.288764 3.4062252 C-0.89037483 2.00959854 -0.89037483 2.00959854 0 0 Z " fill="#EEF2F6" transform="translate(599,468)"/>
<path d="M0 0 C3.00023948 1.34676917 5.08720005 2.83911901 7.40423584 5.16372681 C8.05762436 5.814366 8.71101288 6.46500519 9.38420105 7.13536072 C10.08982681 7.84817703 10.79545258 8.56099335 11.52246094 9.29541016 C12.6498745 10.42238564 12.6498745 10.42238564 13.80006409 11.5721283 C16.28293771 14.05639513 18.7586523 16.54767095 21.234375 19.0390625 C22.95458084 20.76299849 24.6752288 22.48649341 26.39630127 24.20956421 C30.92494332 28.74584251 35.44754715 33.28809494 39.96893311 37.831604 C44.58374014 42.46686953 49.20421396 47.09647863 53.82421875 51.7265625 C62.88837732 60.81217086 71.9463628 69.90390788 81 79 C79.65469337 81.99384241 78.1645454 84.08632366 75.84973145 86.40423584 C75.20198257 87.05762436 74.5542337 87.71101288 73.88685608 88.38420105 C73.17718185 89.08982681 72.46750763 89.79545258 71.73632812 90.52246094 C70.98822372 91.27406998 70.24011932 92.02567902 69.46934509 92.80006409 C66.99498901 95.28322373 64.51338768 97.7589955 62.03125 100.234375 C60.31224754 101.95472422 58.5935421 103.67537027 56.87512207 105.39630127 C53.27367198 109.00070052 49.66862707 112.60145537 46.06103516 116.19970703 C41.42687304 120.82245772 36.80176878 125.45415051 32.1792984 130.08858871 C28.63313913 133.6419575 25.08225176 137.1905705 21.52989197 140.73773956 C19.82190421 142.44438919 18.11541178 144.15253663 16.41041565 145.86217499 C14.03295989 148.24468285 11.64923436 150.62073033 9.26367188 152.99511719 C8.55399765 153.70883987 7.84432343 154.42256256 7.11314392 155.15791321 C6.14152061 156.12107704 6.14152061 156.12107704 5.15026855 157.10369873 C4.5868853 157.66632793 4.02350204 158.22895714 3.44304657 158.80863571 C2 160 2 160 0 160 C-1.469491 158.51106262 -1.469491 158.51106262 -3.16798401 156.46411133 C-6.70780807 152.30432646 -10.44072469 148.42395808 -14.31225586 144.57421875 C-15.00578156 143.88054703 -15.69930725 143.18687531 -16.41384888 142.47218323 C-18.67848174 140.20824012 -20.94662249 137.94784741 -23.21484375 135.6875 C-24.79689566 134.1073156 -26.37872512 132.52690847 -27.96034241 130.94628906 C-32.10253278 126.80789763 -36.24771857 122.67251946 -40.39355469 118.53778076 C-44.63203643 114.30956981 -48.86765171 110.07848948 -53.10351562 105.84765625 C-61.39955512 97.56230775 -69.69876482 89.28014262 -78 81 C-76.66785397 78.04210731 -75.215058 75.96815767 -72.91893005 73.68515015 C-72.28656433 73.05148026 -71.65419861 72.41781036 -71.00267029 71.76493835 C-70.3101265 71.08115616 -69.6175827 70.39737396 -68.90405273 69.69287109 C-68.17384918 68.96398178 -67.44364563 68.23509247 -66.6913147 67.4841156 C-64.27663624 65.07592843 -61.85506734 62.67479024 -59.43359375 60.2734375 C-57.7568225 58.60293572 -56.08056474 56.93191837 -54.40480042 55.26040649 C-49.99202427 50.86093801 -45.57371718 46.46706967 -41.15380859 42.07476807 C-34.07388412 35.03795566 -27.00066926 27.99441449 -19.93065071 20.94765091 C-17.45510409 18.48235873 -14.97618949 16.02048999 -12.49693298 13.55892944 C-10.98669234 12.05551398 -9.47655964 10.55199007 -7.96655273 9.04833984 C-7.27198471 8.36050919 -6.57741669 7.67267853 -5.86180115 6.96400452 C-5.23225525 6.33597427 -4.60270935 5.70794403 -3.9540863 5.06088257 C-3.12975176 4.24182717 -3.12975176 4.24182717 -2.288764 3.4062252 C-0.89037483 2.00959854 -0.89037483 2.00959854 0 0 Z " fill="#EEF2F6" transform="translate(423,468)"/>
<path d="M0 0 C3.00023948 1.34676917 5.08720005 2.83911901 7.40423584 5.16372681 C8.05762436 5.814366 8.71101288 6.46500519 9.38420105 7.13536072 C10.08982681 7.84817703 10.79545258 8.56099335 11.52246094 9.29541016 C12.6498745 10.42238564 12.6498745 10.42238564 13.80006409 11.5721283 C16.28293771 14.05639513 18.7586523 16.54767095 21.234375 19.0390625 C22.95458084 20.76299849 24.6752288 22.48649341 26.39630127 24.20956421 C30.92494332 28.74584251 35.44754715 33.28809494 39.96893311 37.831604 C44.58374014 42.46686953 49.20421396 47.09647863 53.82421875 51.7265625 C62.88837732 60.81217086 71.9463628 69.90390788 81 79 C79.65469337 81.99384241 78.1645454 84.08632366 75.84973145 86.40423584 C75.20198257 87.05762436 74.5542337 87.71101288 73.88685608 88.38420105 C73.17718185 89.08982681 72.46750763 89.79545258 71.73632812 90.52246094 C70.98822372 91.27406998 70.24011932 92.02567902 69.46934509 92.80006409 C66.99498901 95.28322373 64.51338768 97.7589955 62.03125 100.234375 C60.31224754 101.95472422 58.5935421 103.67537027 56.87512207 105.39630127 C53.27367198 109.00070052 49.66862707 112.60145537 46.06103516 116.19970703 C41.42687304 120.82245772 36.80176878 125.45415051 32.1792984 130.08858871 C28.63313913 133.6419575 25.08225176 137.1905705 21.52989197 140.73773956 C19.82190421 142.44438919 18.11541178 144.15253663 16.41041565 145.86217499 C14.03295989 148.24468285 11.64923436 150.62073033 9.26367188 152.99511719 C8.55399765 153.70883987 7.84432343 154.42256256 7.11314392 155.15791321 C6.14152061 156.12107704 6.14152061 156.12107704 5.15026855 157.10369873 C4.5868853 157.66632793 4.02350204 158.22895714 3.44304657 158.80863571 C2 160 2 160 0 160 C-1.469491 158.51106262 -1.469491 158.51106262 -3.16798401 156.46411133 C-6.70780807 152.30432646 -10.44072469 148.42395808 -14.31225586 144.57421875 C-15.00578156 143.88054703 -15.69930725 143.18687531 -16.41384888 142.47218323 C-18.67848174 140.20824012 -20.94662249 137.94784741 -23.21484375 135.6875 C-24.79689566 134.1073156 -26.37872512 132.52690847 -27.96034241 130.94628906 C-32.10253278 126.80789763 -36.24771857 122.67251946 -40.39355469 118.53778076 C-44.63203643 114.30956981 -48.86765171 110.07848948 -53.10351562 105.84765625 C-61.39955512 97.56230775 -69.69876482 89.28014262 -78 81 C-76.66785397 78.04210731 -75.215058 75.96815767 -72.91893005 73.68515015 C-72.28656433 73.05148026 -71.65419861 72.41781036 -71.00267029 71.76493835 C-70.3101265 71.08115616 -69.6175827 70.39737396 -68.90405273 69.69287109 C-68.17384918 68.96398178 -67.44364563 68.23509247 -66.6913147 67.4841156 C-64.27663624 65.07592843 -61.85506734 62.67479024 -59.43359375 60.2734375 C-57.7568225 58.60293572 -56.08056474 56.93191837 -54.40480042 55.26040649 C-49.99202427 50.86093801 -45.57371718 46.46706967 -41.15380859 42.07476807 C-34.07388412 35.03795566 -27.00066926 27.99441449 -19.93065071 20.94765091 C-17.45510409 18.48235873 -14.97618949 16.02048999 -12.49693298 13.55892944 C-10.98669234 12.05551398 -9.47655964 10.55199007 -7.96655273 9.04833984 C-7.27198471 8.36050919 -6.57741669 7.67267853 -5.86180115 6.96400452 C-5.23225525 6.33597427 -4.60270935 5.70794403 -3.9540863 5.06088257 C-3.12975176 4.24182717 -3.12975176 4.24182717 -2.288764 3.4062252 C-0.89037483 2.00959854 -0.89037483 2.00959854 0 0 Z " fill="#7BB399" transform="translate(511,380)"/>
</svg>
